# xmcd CD database file
#
# Track frame offsets:
#	150
#	23338
#	51021
#	69218
#	101533
#	140427
#	163776
#	182630
#	212767
#	235995
#	257560
#	280057
#
# Disc length: 4019 seconds
#
# Revision: 0
# Processed by: cddbd v1.4PL0 Copyright (c) Steve Scherf et al.
# Submitted via: CDex 1.50beta10
#
DISCID=9c0fb10c
DTITLE=Keith Oxman - Brainstorm
DYEAR=2002
DGENRE=Jazz
TTITLE0=Idaho
TTITLE1=Shira
TTITLE2=Brother William
TTITLE3=Brainstorm
TTITLE4=Parisian Thoroughfare
TTITLE5=Dear Old Stockholm
TTITLE6=Justin's Arrival
TTITLE7=Shai
TTITLE8=In Like Lyn
TTITLE9=Isfahan
TTITLE10=My Ship
TTITLE11=I Want More
EXTD=YEAR: 2002
EXTT0=
EXTT1=
EXTT2=
EXTT3=
EXTT4=
EXTT5=
EXTT6=
EXTT7=
EXTT8=
EXTT9=
EXTT10=
EXTT11=
PLAYORDER=
